<mxfile host="app.diagrams.net" modified="2023-03-29T09:31:53.262Z" agent="Mozilla/5.0 (Windows NT 10.0; Win64; x64) AppleWebKit/537.36 (KHTML, like Gecko) Chrome/108.0.0.0 YaBrowser/23.1.5.708 Yowser/2.5 Safari/537.36" version="21.1.1" etag="5_NpsKavG7JCxw8B5sYT" type="device">
  <diagram id="NjYcvG-ChmUHD-LdFXxw" name="Страница 1">
    <mxGraphModel dx="1050" dy="553" grid="1" gridSize="10" guides="1" tooltips="1" connect="1" arrows="1" fold="1" page="1" pageScale="1" pageWidth="827" pageHeight="1169" math="0" shadow="0">
      <root>
        <mxCell id="0" />
        <mxCell id="1" parent="0" />
        <mxCell id="1mk5qfd71kPXNzro4SKL-9" style="edgeStyle=orthogonalEdgeStyle;rounded=0;orthogonalLoop=1;jettySize=auto;html=1;entryX=0.5;entryY=0;entryDx=0;entryDy=0;" edge="1" parent="1" source="1mk5qfd71kPXNzro4SKL-1" target="1mk5qfd71kPXNzro4SKL-8">
          <mxGeometry relative="1" as="geometry" />
        </mxCell>
        <mxCell id="1mk5qfd71kPXNzro4SKL-1" value="Начало" style="ellipse;whiteSpace=wrap;html=1;" vertex="1" parent="1">
          <mxGeometry x="300" y="10" width="120" height="40" as="geometry" />
        </mxCell>
        <mxCell id="1mk5qfd71kPXNzro4SKL-11" value="" style="edgeStyle=orthogonalEdgeStyle;rounded=0;orthogonalLoop=1;jettySize=auto;html=1;" edge="1" parent="1" source="1mk5qfd71kPXNzro4SKL-8" target="1mk5qfd71kPXNzro4SKL-10">
          <mxGeometry relative="1" as="geometry" />
        </mxCell>
        <mxCell id="1mk5qfd71kPXNzro4SKL-8" value="string[] input,&lt;br&gt;string[] output,&lt;br&gt;int i = 0,&lt;br&gt;int j = 0,&lt;br&gt;int n = 3" style="shape=parallelogram;perimeter=parallelogramPerimeter;whiteSpace=wrap;html=1;fixedSize=1;" vertex="1" parent="1">
          <mxGeometry x="275" y="80" width="170" height="80" as="geometry" />
        </mxCell>
        <mxCell id="1mk5qfd71kPXNzro4SKL-13" style="edgeStyle=orthogonalEdgeStyle;rounded=0;orthogonalLoop=1;jettySize=auto;html=1;exitX=0.5;exitY=1;exitDx=0;exitDy=0;" edge="1" parent="1" source="1mk5qfd71kPXNzro4SKL-10" target="1mk5qfd71kPXNzro4SKL-12">
          <mxGeometry relative="1" as="geometry" />
        </mxCell>
        <mxCell id="1mk5qfd71kPXNzro4SKL-10" value="i &amp;lt;= input.length" style="rhombus;whiteSpace=wrap;html=1;" vertex="1" parent="1">
          <mxGeometry x="280" y="200" width="160" height="60" as="geometry" />
        </mxCell>
        <mxCell id="1mk5qfd71kPXNzro4SKL-25" value="" style="edgeStyle=orthogonalEdgeStyle;rounded=0;orthogonalLoop=1;jettySize=auto;html=1;" edge="1" parent="1" source="1mk5qfd71kPXNzro4SKL-12" target="1mk5qfd71kPXNzro4SKL-24">
          <mxGeometry relative="1" as="geometry" />
        </mxCell>
        <mxCell id="1mk5qfd71kPXNzro4SKL-30" value="" style="edgeStyle=orthogonalEdgeStyle;rounded=0;orthogonalLoop=1;jettySize=auto;html=1;" edge="1" parent="1" source="1mk5qfd71kPXNzro4SKL-12" target="1mk5qfd71kPXNzro4SKL-29">
          <mxGeometry relative="1" as="geometry" />
        </mxCell>
        <mxCell id="1mk5qfd71kPXNzro4SKL-12" value="input.length &amp;lt;= n" style="rhombus;whiteSpace=wrap;html=1;" vertex="1" parent="1">
          <mxGeometry x="280" y="310" width="160" height="60" as="geometry" />
        </mxCell>
        <mxCell id="1mk5qfd71kPXNzro4SKL-14" value="Да" style="text;html=1;align=center;verticalAlign=middle;resizable=0;points=[];autosize=1;strokeColor=none;fillColor=none;" vertex="1" parent="1">
          <mxGeometry x="360" y="270" width="40" height="30" as="geometry" />
        </mxCell>
        <mxCell id="1mk5qfd71kPXNzro4SKL-22" value="" style="edgeStyle=none;orthogonalLoop=1;jettySize=auto;html=1;rounded=0;exitX=1;exitY=0.5;exitDx=0;exitDy=0;exitPerimeter=0;" edge="1" parent="1" source="1mk5qfd71kPXNzro4SKL-10">
          <mxGeometry width="100" relative="1" as="geometry">
            <mxPoint x="450" y="230" as="sourcePoint" />
            <mxPoint x="520" y="230" as="targetPoint" />
            <Array as="points" />
          </mxGeometry>
        </mxCell>
        <mxCell id="1mk5qfd71kPXNzro4SKL-23" value="Нет" style="text;html=1;align=center;verticalAlign=middle;resizable=0;points=[];autosize=1;strokeColor=none;fillColor=none;" vertex="1" parent="1">
          <mxGeometry x="460" y="200" width="40" height="30" as="geometry" />
        </mxCell>
        <mxCell id="1mk5qfd71kPXNzro4SKL-28" value="" style="edgeStyle=orthogonalEdgeStyle;rounded=0;orthogonalLoop=1;jettySize=auto;html=1;" edge="1" parent="1" source="1mk5qfd71kPXNzro4SKL-24" target="1mk5qfd71kPXNzro4SKL-27">
          <mxGeometry relative="1" as="geometry" />
        </mxCell>
        <mxCell id="1mk5qfd71kPXNzro4SKL-24" value="output[ j ] = Input[ i ]&amp;nbsp;" style="whiteSpace=wrap;html=1;" vertex="1" parent="1">
          <mxGeometry x="280" y="420" width="160" height="60" as="geometry" />
        </mxCell>
        <mxCell id="1mk5qfd71kPXNzro4SKL-26" value="Да" style="text;html=1;align=center;verticalAlign=middle;resizable=0;points=[];autosize=1;strokeColor=none;fillColor=none;" vertex="1" parent="1">
          <mxGeometry x="360" y="380" width="40" height="30" as="geometry" />
        </mxCell>
        <mxCell id="1mk5qfd71kPXNzro4SKL-32" style="edgeStyle=orthogonalEdgeStyle;rounded=0;orthogonalLoop=1;jettySize=auto;html=1;exitX=0.5;exitY=0;exitDx=0;exitDy=0;entryX=0.5;entryY=1;entryDx=0;entryDy=0;" edge="1" parent="1" source="1mk5qfd71kPXNzro4SKL-27" target="1mk5qfd71kPXNzro4SKL-29">
          <mxGeometry relative="1" as="geometry" />
        </mxCell>
        <mxCell id="1mk5qfd71kPXNzro4SKL-27" value="j++" style="whiteSpace=wrap;html=1;" vertex="1" parent="1">
          <mxGeometry x="110" y="420" width="120" height="60" as="geometry" />
        </mxCell>
        <mxCell id="1mk5qfd71kPXNzro4SKL-33" style="edgeStyle=orthogonalEdgeStyle;rounded=0;orthogonalLoop=1;jettySize=auto;html=1;exitX=0.5;exitY=0;exitDx=0;exitDy=0;entryX=0;entryY=0.5;entryDx=0;entryDy=0;" edge="1" parent="1" source="1mk5qfd71kPXNzro4SKL-29" target="1mk5qfd71kPXNzro4SKL-10">
          <mxGeometry relative="1" as="geometry" />
        </mxCell>
        <mxCell id="1mk5qfd71kPXNzro4SKL-29" value="i++" style="whiteSpace=wrap;html=1;" vertex="1" parent="1">
          <mxGeometry x="110" y="310" width="120" height="60" as="geometry" />
        </mxCell>
        <mxCell id="1mk5qfd71kPXNzro4SKL-31" value="Нет" style="text;html=1;align=center;verticalAlign=middle;resizable=0;points=[];autosize=1;strokeColor=none;fillColor=none;" vertex="1" parent="1">
          <mxGeometry x="240" y="310" width="40" height="30" as="geometry" />
        </mxCell>
        <mxCell id="1mk5qfd71kPXNzro4SKL-36" value="" style="edgeStyle=orthogonalEdgeStyle;rounded=0;orthogonalLoop=1;jettySize=auto;html=1;" edge="1" parent="1" source="1mk5qfd71kPXNzro4SKL-34" target="1mk5qfd71kPXNzro4SKL-35">
          <mxGeometry relative="1" as="geometry" />
        </mxCell>
        <mxCell id="1mk5qfd71kPXNzro4SKL-34" value="output" style="whiteSpace=wrap;html=1;" vertex="1" parent="1">
          <mxGeometry x="520" y="200" width="120" height="60" as="geometry" />
        </mxCell>
        <mxCell id="1mk5qfd71kPXNzro4SKL-35" value="Выход&amp;nbsp;" style="ellipse;whiteSpace=wrap;html=1;" vertex="1" parent="1">
          <mxGeometry x="520" y="320" width="120" height="40" as="geometry" />
        </mxCell>
      </root>
    </mxGraphModel>
  </diagram>
</mxfile>
